<svg width="1604" height="955" viewBox="0 0 1604 955" fill="none" xmlns="http://www.w3.org/2000/svg">
<g clip-path="url(#clip0_729_1953)">
<path d="M847.736 261.96H895.096L892.152 249.16H850.552L847.736 261.96ZM871.16 220.744L885.368 254.024L885.752 257.736L897.912 285H914.936L871.16 190.408L827.384 285H844.408L856.824 256.968L857.08 253.64L871.16 220.744ZM925.359 195.4V285H940.719V195.4H925.359ZM954.287 285C963.418 285 971.439 283.165 978.351 279.496C985.263 275.741 990.639 270.536 994.479 263.88C998.404 257.139 1000.37 249.245 1000.37 240.2C1000.37 231.155 998.404 223.304 994.479 216.648C990.639 209.907 985.263 204.701 978.351 201.032C971.439 197.277 963.418 195.4 954.287 195.4H934.703V209.608H953.903C958.34 209.608 962.436 210.248 966.191 211.528C969.946 212.808 973.188 214.728 975.919 217.288C978.735 219.848 980.911 223.048 982.447 226.888C984.068 230.728 984.879 235.165 984.879 240.2C984.879 245.235 984.068 249.672 982.447 253.512C980.911 257.352 978.735 260.552 975.919 263.112C973.188 265.672 969.946 267.592 966.191 268.872C962.436 270.152 958.34 270.792 953.903 270.792H934.703V285H954.287ZM1015.11 195.4V285H1030.47V195.4H1015.11ZM1044.04 285C1053.17 285 1061.19 283.165 1068.1 279.496C1075.01 275.741 1080.39 270.536 1084.23 263.88C1088.15 257.139 1090.12 249.245 1090.12 240.2C1090.12 231.155 1088.15 223.304 1084.23 216.648C1080.39 209.907 1075.01 204.701 1068.1 201.032C1061.19 197.277 1053.17 195.4 1044.04 195.4H1024.45V209.608H1043.65C1048.09 209.608 1052.19 210.248 1055.94 211.528C1059.7 212.808 1062.94 214.728 1065.67 217.288C1068.49 219.848 1070.66 223.048 1072.2 226.888C1073.82 230.728 1074.63 235.165 1074.63 240.2C1074.63 245.235 1073.82 249.672 1072.2 253.512C1070.66 257.352 1068.49 260.552 1065.67 263.112C1062.94 265.672 1059.7 267.592 1055.94 268.872C1052.19 270.152 1048.09 270.792 1043.65 270.792H1024.45V285H1044.04ZM1104.86 195.4V285H1120.09V195.4H1104.86ZM1146 256.2L1134.73 264.008C1136.7 268.104 1139.34 271.901 1142.67 275.4C1146 278.899 1149.88 281.715 1154.32 283.848C1158.84 285.896 1163.75 286.92 1169.04 286.92C1172.88 286.92 1176.55 286.28 1180.05 285C1183.63 283.805 1186.83 282.099 1189.65 279.88C1192.46 277.576 1194.68 274.76 1196.3 271.432C1197.92 268.104 1198.73 264.349 1198.73 260.168C1198.73 256.243 1198.05 252.829 1196.69 249.928C1195.41 247.027 1193.66 244.509 1191.44 242.376C1189.22 240.157 1186.74 238.323 1184.01 236.872C1181.37 235.421 1178.72 234.227 1176.08 233.288C1171.3 231.581 1167.42 229.917 1164.43 228.296C1161.44 226.675 1159.22 224.968 1157.77 223.176C1156.41 221.299 1155.73 219.208 1155.73 216.904C1155.73 214.344 1156.71 212.125 1158.67 210.248C1160.63 208.285 1163.7 207.304 1167.89 207.304C1170.87 207.304 1173.47 207.901 1175.69 209.096C1178 210.205 1180 211.741 1181.71 213.704C1183.42 215.581 1184.82 217.629 1185.93 219.848L1198.22 212.936C1196.69 209.779 1194.55 206.749 1191.82 203.848C1189.18 200.947 1185.89 198.557 1181.97 196.68C1178.04 194.803 1173.43 193.864 1168.14 193.864C1162.77 193.864 1157.94 194.888 1153.68 196.936C1149.5 198.899 1146.17 201.715 1143.69 205.384C1141.22 208.968 1139.98 213.149 1139.98 217.928C1139.98 222.109 1140.79 225.693 1142.41 228.68C1144.03 231.581 1146.08 234.056 1148.56 236.104C1151.03 238.067 1153.63 239.731 1156.37 241.096C1159.1 242.376 1161.57 243.4 1163.79 244.168C1167.54 245.533 1170.83 246.941 1173.65 248.392C1176.55 249.757 1178.81 251.464 1180.43 253.512C1182.05 255.475 1182.86 258.12 1182.86 261.448C1182.86 264.947 1181.58 267.805 1179.02 270.024C1176.46 272.243 1173.13 273.352 1169.04 273.352C1165.62 273.352 1162.55 272.669 1159.82 271.304C1157.09 269.853 1154.57 267.848 1152.27 265.288C1150.05 262.643 1147.96 259.613 1146 256.2ZM842.872 441.2L831.608 449.008C833.571 453.104 836.216 456.901 839.544 460.4C842.872 463.899 846.755 466.715 851.192 468.848C855.715 470.896 860.621 471.92 865.912 471.92C869.752 471.92 873.421 471.28 876.92 470C880.504 468.805 883.704 467.099 886.52 464.88C889.336 462.576 891.555 459.76 893.176 456.432C894.797 453.104 895.608 449.349 895.608 445.168C895.608 441.243 894.925 437.829 893.56 434.928C892.28 432.027 890.531 429.509 888.312 427.376C886.093 425.157 883.619 423.323 880.888 421.872C878.243 420.421 875.597 419.227 872.952 418.288C868.173 416.581 864.291 414.917 861.304 413.296C858.317 411.675 856.099 409.968 854.648 408.176C853.283 406.299 852.6 404.208 852.6 401.904C852.6 399.344 853.581 397.125 855.544 395.248C857.507 393.285 860.579 392.304 864.76 392.304C867.747 392.304 870.349 392.901 872.568 394.096C874.872 395.205 876.877 396.741 878.584 398.704C880.291 400.581 881.699 402.629 882.808 404.848L895.096 397.936C893.56 394.779 891.427 391.749 888.696 388.848C886.051 385.947 882.765 383.557 878.84 381.68C874.915 379.803 870.307 378.864 865.016 378.864C859.64 378.864 854.819 379.888 850.552 381.936C846.371 383.899 843.043 386.715 840.568 390.384C838.093 393.968 836.856 398.149 836.856 402.928C836.856 407.109 837.667 410.693 839.288 413.68C840.909 416.581 842.957 419.056 845.432 421.104C847.907 423.067 850.509 424.731 853.24 426.096C855.971 427.376 858.445 428.4 860.664 429.168C864.419 430.533 867.704 431.941 870.52 433.392C873.421 434.757 875.683 436.464 877.304 438.512C878.925 440.475 879.736 443.12 879.736 446.448C879.736 449.947 878.456 452.805 875.896 455.024C873.336 457.243 870.008 458.352 865.912 458.352C862.499 458.352 859.427 457.669 856.696 456.304C853.965 454.853 851.448 452.848 849.144 450.288C846.925 447.643 844.835 444.613 842.872 441.2ZM921.989 425.2C921.989 419.056 923.269 413.595 925.829 408.816C928.474 403.952 932.101 400.155 936.709 397.424C941.317 394.693 946.565 393.328 952.453 393.328C958.512 393.328 963.802 394.693 968.325 397.424C972.933 400.155 976.517 403.952 979.077 408.816C981.637 413.595 982.917 419.056 982.917 425.2C982.917 431.344 981.594 436.848 978.949 441.712C976.389 446.491 972.805 450.245 968.197 452.976C963.674 455.707 958.426 457.072 952.453 457.072C946.565 457.072 941.317 455.707 936.709 452.976C932.101 450.245 928.474 446.491 925.829 441.712C923.269 436.848 921.989 431.344 921.989 425.2ZM905.989 425.2C905.989 431.856 907.141 438.043 909.445 443.76C911.749 449.477 914.949 454.427 919.045 458.608C923.226 462.789 928.176 466.075 933.893 468.464C939.61 470.768 945.797 471.92 952.453 471.92C959.194 471.92 965.381 470.768 971.013 468.464C976.73 466.075 981.68 462.789 985.861 458.608C990.042 454.427 993.285 449.477 995.589 443.76C997.893 438.043 999.045 431.856 999.045 425.2C999.045 418.459 997.893 412.272 995.589 406.64C993.285 401.008 990 396.144 985.733 392.048C981.552 387.867 976.645 384.624 971.013 382.32C965.381 380.016 959.194 378.864 952.453 378.864C945.882 378.864 939.738 380.016 934.021 382.32C928.389 384.624 923.44 387.867 919.173 392.048C914.992 396.144 911.749 401.008 909.445 406.64C907.141 412.272 905.989 418.459 905.989 425.2ZM1023.08 393.968H1063.14V380.4H1023.08V393.968ZM1023.08 429.552H1061.86V416.368H1023.08V429.552ZM1013.73 380.4V470H1028.58V380.4H1013.73ZM1067.65 394.352H1091.2V470H1106.43V394.352H1130.11V380.4H1067.65V394.352ZM1226.01 440.432L1200.28 375.92L1174.81 440.432L1153.56 380.4H1136.02L1172.63 474.736L1200.28 411.376L1227.93 474.736L1264.54 380.4H1247L1226.01 440.432ZM1273.49 446.96H1320.85L1317.9 434.16H1276.3L1273.49 446.96ZM1296.91 405.744L1311.12 439.024L1311.5 442.736L1323.66 470H1340.69L1296.91 375.408L1253.13 470H1270.16L1282.57 441.968L1282.83 438.64L1296.91 405.744ZM1369.54 427.248L1398.09 470H1416.26L1385.93 427.248H1369.54ZM1351.11 380.4V470H1366.21V380.4H1351.11ZM1360.07 393.456H1378.12C1381.53 393.456 1384.52 394.053 1387.08 395.248C1389.72 396.443 1391.77 398.149 1393.22 400.368C1394.67 402.587 1395.4 405.317 1395.4 408.56C1395.4 411.717 1394.67 414.448 1393.22 416.752C1391.77 418.971 1389.72 420.677 1387.08 421.872C1384.52 423.067 1381.53 423.664 1378.12 423.664H1360.07V436.08H1378.76C1385.24 436.08 1390.87 434.928 1395.65 432.624C1400.52 430.32 1404.27 427.077 1406.92 422.896C1409.56 418.715 1410.89 413.808 1410.89 408.176C1410.89 402.544 1409.56 397.68 1406.92 393.584C1404.27 389.403 1400.52 386.16 1395.65 383.856C1390.87 381.552 1385.24 380.4 1378.76 380.4H1360.07V393.456ZM1436.58 470H1481.76V456.688H1436.58V470ZM1436.58 393.712H1481.76V380.4H1436.58V393.712ZM1436.58 428.528H1479.2V415.472H1436.58V428.528ZM1427.23 380.4V470H1442.08V380.4H1427.23Z" fill="white"/>
<path d="M833.68 697.832L811.6 645.8H802.48L833.68 716.36L864.88 645.8H855.76L833.68 697.832ZM879.524 692.84H915.045L912.165 685.16H882.404L879.524 692.84ZM897.092 660.968L908.613 688.04L909.381 689.96L919.172 713H928.293L897.092 642.44L865.892 713H875.012L884.996 689.384L885.764 687.656L897.092 660.968ZM947.961 679.4C947.961 674.152 949.113 669.576 951.417 665.672C953.785 661.704 956.857 658.6 960.633 656.36C964.409 654.12 968.505 653 972.921 653C976.121 653 979.033 653.416 981.657 654.248C984.345 655.08 986.777 656.264 988.953 657.8C991.129 659.272 992.985 661 994.521 662.984V652.232C991.705 649.736 988.633 647.88 985.305 646.664C981.977 645.448 977.849 644.84 972.921 644.84C968.249 644.84 963.865 645.704 959.769 647.432C955.737 649.096 952.185 651.496 949.113 654.632C946.041 657.704 943.641 661.352 941.913 665.576C940.185 669.8 939.321 674.408 939.321 679.4C939.321 684.392 940.185 689 941.913 693.224C943.641 697.448 946.041 701.128 949.113 704.264C952.185 707.336 955.737 709.736 959.769 711.464C963.865 713.128 968.249 713.96 972.921 713.96C977.849 713.96 981.977 713.352 985.305 712.136C988.633 710.92 991.705 709.064 994.521 706.568V695.816C992.985 697.8 991.129 699.56 988.953 701.096C986.777 702.568 984.345 703.72 981.657 704.552C979.033 705.384 976.121 705.8 972.921 705.8C968.505 705.8 964.409 704.68 960.633 702.44C956.857 700.2 953.785 697.096 951.417 693.128C949.113 689.16 947.961 684.584 947.961 679.4ZM1023.51 692.84H1059.03L1056.15 685.16H1026.39L1023.51 692.84ZM1041.07 660.968L1052.59 688.04L1053.36 689.96L1063.15 713H1072.27L1041.07 642.44L1009.87 713H1018.99L1028.98 689.384L1029.75 687.656L1041.07 660.968ZM1140.93 645.8V695.816L1090.05 642.44V713H1098.21V662.984L1149.09 716.36V645.8H1140.93ZM1178.89 679.4C1178.89 674.152 1180.04 669.576 1182.34 665.672C1184.71 661.704 1187.78 658.6 1191.56 656.36C1195.33 654.12 1199.43 653 1203.85 653C1207.05 653 1209.96 653.416 1212.58 654.248C1215.27 655.08 1217.7 656.264 1219.88 657.8C1222.05 659.272 1223.91 661 1225.45 662.984V652.232C1222.63 649.736 1219.56 647.88 1216.23 646.664C1212.9 645.448 1208.77 644.84 1203.85 644.84C1199.17 644.84 1194.79 645.704 1190.69 647.432C1186.66 649.096 1183.11 651.496 1180.04 654.632C1176.97 657.704 1174.57 661.352 1172.84 665.576C1171.11 669.8 1170.25 674.408 1170.25 679.4C1170.25 684.392 1171.11 689 1172.84 693.224C1174.57 697.448 1176.97 701.128 1180.04 704.264C1183.11 707.336 1186.66 709.736 1190.69 711.464C1194.79 713.128 1199.17 713.96 1203.85 713.96C1208.77 713.96 1212.9 713.352 1216.23 712.136C1219.56 710.92 1222.63 709.064 1225.45 706.568V695.816C1223.91 697.8 1222.05 699.56 1219.88 701.096C1217.7 702.568 1215.27 703.72 1212.58 704.552C1209.96 705.384 1207.05 705.8 1203.85 705.8C1199.43 705.8 1195.33 704.68 1191.56 702.44C1187.78 700.2 1184.71 697.096 1182.34 693.128C1180.04 689.16 1178.89 684.584 1178.89 679.4ZM1283.07 645.8L1265.7 676.904L1248.42 645.8H1239.3L1261.67 684.104V713H1269.83V684.008L1292.19 645.8H1283.07ZM1341.57 653.48H1358.85V713H1367.01V653.48H1384.29V645.8H1341.57V653.48ZM1407.03 713H1440.92V705.32H1407.03V713ZM1407.03 653.48H1440.92V645.8H1407.03V653.48ZM1407.03 680.36H1439V672.68H1407.03V680.36ZM1402.52 645.8V713H1410.68V645.8H1402.52ZM1467.39 692.648L1460.87 697.064C1462.34 700.008 1464.23 702.792 1466.53 705.416C1468.9 707.976 1471.62 710.056 1474.69 711.656C1477.83 713.192 1481.22 713.96 1484.87 713.96C1487.55 713.96 1490.11 713.512 1492.55 712.616C1495.04 711.72 1497.25 710.44 1499.17 708.776C1501.15 707.112 1502.69 705.096 1503.78 702.728C1504.93 700.36 1505.51 697.704 1505.51 694.76C1505.51 691.688 1504.96 689.064 1503.87 686.888C1502.79 684.648 1501.38 682.76 1499.65 681.224C1497.99 679.624 1496.16 678.312 1494.18 677.288C1492.19 676.264 1490.31 675.432 1488.51 674.792C1484.61 673.448 1481.51 672.104 1479.2 670.76C1476.96 669.352 1475.36 667.88 1474.4 666.344C1473.44 664.744 1472.96 663.016 1472.96 661.16C1472.96 658.984 1473.79 657.032 1475.46 655.304C1477.12 653.512 1479.78 652.616 1483.43 652.616C1486.05 652.616 1488.26 653.128 1490.05 654.152C1491.91 655.176 1493.47 656.488 1494.75 658.088C1496.03 659.688 1497.09 661.32 1497.92 662.984L1504.93 658.952C1503.84 656.584 1502.34 654.344 1500.42 652.232C1498.5 650.056 1496.16 648.296 1493.41 646.952C1490.72 645.544 1487.55 644.84 1483.91 644.84C1480.13 644.84 1476.77 645.608 1473.83 647.144C1470.88 648.616 1468.58 650.664 1466.91 653.288C1465.25 655.912 1464.42 658.888 1464.42 662.216C1464.42 665.288 1464.99 667.88 1466.15 669.992C1467.36 672.104 1468.9 673.896 1470.75 675.368C1472.61 676.776 1474.56 677.96 1476.61 678.92C1478.66 679.816 1480.51 680.552 1482.18 681.128C1484.74 682.024 1487.14 683.048 1489.38 684.2C1491.68 685.288 1493.54 686.728 1494.95 688.52C1496.35 690.312 1497.06 692.712 1497.06 695.72C1497.06 698.792 1495.97 701.32 1493.79 703.304C1491.62 705.288 1488.74 706.28 1485.15 706.28C1482.47 706.28 1480.07 705.704 1477.95 704.552C1475.84 703.4 1473.92 701.8 1472.19 699.752C1470.53 697.704 1468.93 695.336 1467.39 692.648ZM1520.37 653.48H1537.65V713H1545.81V653.48H1563.09V645.8H1520.37V653.48Z" fill="white" fill-opacity="0.65"/>
<path d="M388 362C334.428 362 291 318.572 291 265L291 133C291 79.4284 334.428 36 388 36V36C441.572 36 485 79.4284 485 133L485 265C485 318.572 441.572 362 388 362V362Z" fill="#C7D710"/>
<path d="M388 936C334.428 936 291 892.572 291 839L291 707C291 653.428 334.428 610 388 610V610C441.572 610 485 653.428 485 707L485 839C485 892.572 441.572 936 388 936V936Z" fill="#C7D710"/>
<path d="M641 867C587.428 867 544 823.572 544 770L544 229C544 175.428 587.428 132 641 132V132C694.572 132 738 175.428 738 229L738 770C738 823.572 694.572 867 641 867V867Z" fill="#24CEC8"/>
<path d="M613.5 454C598.312 454 586 441.688 586 426.5V426.5C586 411.312 598.312 399 613.5 399V399C628.688 399 641 411.312 641 426.5V426.5C641 441.688 628.688 454 613.5 454V454Z" fill="white"/>
<path d="M670 598C658.954 598 650 589.046 650 578V578C650 566.954 658.954 558 670 558V558C681.046 558 690 566.954 690 578V578C690 589.046 681.046 598 670 598V598Z" fill="white"/>
<path d="M388 581C337.742 581 297 540.258 297 490V490C297 439.742 337.742 399 388 399V399C438.258 399 479 439.742 479 490V490C479 540.258 438.258 581 388 581V581Z" fill="#FA8937"/>
<path d="M135 867C81.4284 867 38 823.572 38 770L37.9999 229C37.9999 175.428 81.4283 132 135 132V132C188.572 132 232 175.428 232 229L232 770C232 823.572 188.572 867 135 867V867Z" fill="#2174C9"/>
</g>
<defs>
<clipPath id="clip0_729_1953">
<rect width="1604" height="955" fill="white"/>
</clipPath>
</defs>
</svg>
